<svg width="94" height="64" viewBox="0 0 94 64" fill="none" xmlns="http://www.w3.org/2000/svg">
<path d="M0.419922 58.0938L3.69141 56.9219C4.92839 56.4661 5.8724 55.6523 6.52344 54.4805C7.17448 53.3086 7.5 51.8763 7.5 50.1836V12.293C7.5 10.6328 7.1582 9.20052 6.47461 7.99609C5.82357 6.79167 4.89583 5.99414 3.69141 5.60352L0.175781 4.48047L0.615234 0.623047H23.6133L24.0039 4.48047L21.123 5.4082C19.6908 5.83138 18.584 6.66146 17.8027 7.89844C17.054 9.10286 16.6797 11.0072 16.6797 13.6113V49.0117C16.6797 51.4857 17.0866 53.39 17.9004 54.7246C18.7142 56.0267 19.7884 56.8568 21.123 57.2148L24.1016 57.9961L23.7109 62H0.615234L0.419922 58.0938ZM93.1934 4.48047L90.5566 5.21289C89.4824 5.53841 88.6035 6.1569 87.9199 7.06836C87.2689 7.94727 86.5527 9.29818 85.7715 11.1211L65.166 61.5117L57.5488 63.123L39.6777 13.416C38.9616 11.3978 38.3919 9.96549 37.9688 9.11914C37.5781 8.27279 37.1061 7.58919 36.5527 7.06836C36.0319 6.51497 35.2669 5.99414 34.2578 5.50586L31.7676 4.48047L31.9629 0.623047H54.2773L54.5703 4.48047L52.4707 5.01758C51.2012 5.3431 50.306 5.71745 49.7852 6.14062C49.2969 6.53125 49.0527 7.19857 49.0527 8.14258C49.0527 8.92383 49.2155 9.96549 49.541 11.2676C49.8991 12.5697 50.4688 14.474 51.25 16.9805L63.3594 52.5762L75.3711 19.5195C76.1198 17.5013 76.6895 15.776 77.0801 14.3438C77.5033 12.9115 77.7148 11.6419 77.7148 10.5352C77.7148 8.0612 76.5755 6.41732 74.2969 5.60352L71.2695 4.48047L71.6602 0.623047H92.9492L93.1934 4.48047Z" fill="#CC2E36"/>
</svg>
