<svg width="62" height="64" viewBox="0 0 62 64" fill="none" xmlns="http://www.w3.org/2000/svg">
<path d="M61.7207 4.48047L59.084 5.21289C58.0098 5.53841 57.1309 6.1569 56.4473 7.06836C55.7962 7.94727 55.0801 9.29818 54.2988 11.1211L33.6934 61.5117L26.0762 63.123L8.20508 13.416C7.48893 11.3978 6.91927 9.96549 6.49609 9.11914C6.10547 8.27279 5.63346 7.58919 5.08008 7.06836C4.55924 6.51497 3.79427 5.99414 2.78516 5.50586L0.294922 4.48047L0.490234 0.623047H22.8047L23.0977 4.48047L20.998 5.01758C19.7285 5.3431 18.8333 5.71745 18.3125 6.14062C17.8242 6.53125 17.5801 7.19857 17.5801 8.14258C17.5801 8.92383 17.7428 9.96549 18.0684 11.2676C18.4264 12.5697 18.9961 14.474 19.7773 16.9805L31.8867 52.5762L43.8984 19.5195C44.6471 17.5013 45.2168 15.776 45.6074 14.3438C46.0306 12.9115 46.2422 11.6419 46.2422 10.5352C46.2422 8.0612 45.1029 6.41732 42.8242 5.60352L39.7969 4.48047L40.1875 0.623047H61.4766L61.7207 4.48047Z" fill="#CC2E36"/>
</svg>
