<svg width="127" height="64" viewBox="0 0 127 64" fill="none" xmlns="http://www.w3.org/2000/svg">
<path d="M61.7207 4.48047L59.084 5.21289C58.0098 5.53841 57.1309 6.1569 56.4473 7.06836C55.7962 7.94727 55.0801 9.29818 54.2988 11.1211L33.6934 61.5117L26.0762 63.123L8.20508 13.416C7.48893 11.3978 6.91927 9.96549 6.49609 9.11914C6.10547 8.27279 5.63346 7.58919 5.08008 7.06836C4.55924 6.51497 3.79427 5.99414 2.78516 5.50586L0.294922 4.48047L0.490234 0.623047H22.8047L23.0977 4.48047L20.998 5.01758C19.7285 5.3431 18.8333 5.71745 18.3125 6.14062C17.8242 6.53125 17.5801 7.19857 17.5801 8.14258C17.5801 8.92383 17.7428 9.96549 18.0684 11.2676C18.4264 12.5697 18.9961 14.474 19.7773 16.9805L31.8867 52.5762L43.8984 19.5195C44.6471 17.5013 45.2168 15.776 45.6074 14.3438C46.0306 12.9115 46.2422 11.6419 46.2422 10.5352C46.2422 8.0612 45.1029 6.41732 42.8242 5.60352L39.7969 4.48047L40.1875 0.623047H61.4766L61.7207 4.48047ZM69.6309 58.0938L72.9023 56.9219C74.1393 56.4661 75.0833 55.6523 75.7344 54.4805C76.3854 53.3086 76.7109 51.8763 76.7109 50.1836V12.293C76.7109 10.6328 76.3691 9.20052 75.6855 7.99609C75.0345 6.79167 74.1068 5.99414 72.9023 5.60352L69.3867 4.48047L69.8262 0.623047H92.8242L93.2148 4.48047L90.334 5.4082C88.9017 5.83138 87.7949 6.66146 87.0137 7.89844C86.265 9.10286 85.8906 11.0072 85.8906 13.6113V49.0117C85.8906 51.4857 86.2975 53.39 87.1113 54.7246C87.9251 56.0267 88.9993 56.8568 90.334 57.2148L93.3125 57.9961L92.9219 62H69.8262L69.6309 58.0938ZM102.541 58.0938L105.812 56.9219C107.049 56.4661 107.993 55.6523 108.645 54.4805C109.296 53.3086 109.621 51.8763 109.621 50.1836V12.293C109.621 10.6328 109.279 9.20052 108.596 7.99609C107.945 6.79167 107.017 5.99414 105.812 5.60352L102.297 4.48047L102.736 0.623047H125.734L126.125 4.48047L123.244 5.4082C121.812 5.83138 120.705 6.66146 119.924 7.89844C119.175 9.10286 118.801 11.0072 118.801 13.6113V49.0117C118.801 51.4857 119.208 53.39 120.021 54.7246C120.835 56.0267 121.91 56.8568 123.244 57.2148L126.223 57.9961L125.832 62H102.736L102.541 58.0938Z" fill="#CC2E36"/>
</svg>
